<svg display='none' xmlns="http://www.w3.org/2000/svg">
    <symbol id='whatsapp' viewBox="0 0 455.731 455.731">
        <g>
            <rect x="0" y="0" style="fill:#1BD741;" width="455.731" height="455.731" />
            <g>
                <path style="fill:#FFFFFF;"
                    d="M68.494,387.41l22.323-79.284c-14.355-24.387-21.913-52.134-21.913-80.638
                    c0-87.765,71.402-159.167,159.167-159.167s159.166,71.402,159.166,159.167c0,87.765-71.401,159.167-159.166,159.167
                    c-27.347,0-54.125-7-77.814-20.292L68.494,387.41z M154.437,337.406l4.872,2.975c20.654,12.609,44.432,19.274,68.762,19.274
                    c72.877,0,132.166-59.29,132.166-132.167S300.948,95.321,228.071,95.321S95.904,154.611,95.904,227.488
                    c0,25.393,7.217,50.052,20.869,71.311l3.281,5.109l-12.855,45.658L154.437,337.406z" />
                <path style="fill:#FFFFFF;"
                    d="M183.359,153.407l-10.328-0.563c-3.244-0.177-6.426,0.907-8.878,3.037
                    c-5.007,4.348-13.013,12.754-15.472,23.708c-3.667,16.333,2,36.333,16.667,56.333c14.667,20,42,52,90.333,65.667
                    c15.575,4.404,27.827,1.435,37.28-4.612c7.487-4.789,12.648-12.476,14.508-21.166l1.649-7.702c0.524-2.448-0.719-4.932-2.993-5.98
                    l-34.905-16.089c-2.266-1.044-4.953-0.384-6.477,1.591l-13.703,17.764c-1.035,1.342-2.807,1.874-4.407,1.312
                    c-9.384-3.298-40.818-16.463-58.066-49.687c-0.748-1.441-0.562-3.19,0.499-4.419l13.096-15.15
                    c1.338-1.547,1.676-3.722,0.872-5.602l-15.046-35.201C187.187,154.774,185.392,153.518,183.359,153.407z" />
            </g>
        </g>
    </symbol>
    <symbol id='telegram' viewBox="0 0 455 455">
        <path style="fill:#2AABEE;"
            d="M0,0v455h455V0H0z M384.814,100.68l-53.458,257.136
		c-1.259,6.071-8.378,8.822-13.401,5.172l-72.975-52.981c-4.43-3.217-10.471-3.046-14.712,0.412l-40.46,32.981
		c-4.695,3.84-11.771,1.7-13.569-4.083l-28.094-90.351l-72.583-27.089c-7.373-2.762-7.436-13.171-0.084-16.003L373.36,90.959
		C379.675,88.517,386.19,94.049,384.814,100.68z" />
        <path style="fill-rule:evenodd;clip-rule:evenodd;"
            d="M313.567,147.179l-141.854,87.367c-5.437,3.355-7.996,9.921-6.242,16.068
		l15.337,53.891c1.091,3.818,6.631,3.428,7.162-0.517l3.986-29.553c0.753-5.564,3.406-10.693,7.522-14.522l117.069-108.822
		C318.739,149.061,316.115,145.614,313.567,147.179z" />
    </symbol>
    <symbol id='email' viewBox="0 0 512 512">
        <circle cx="256" cy="256" r="256" />
        <g>
            <path style="fill:#FFFFFF;"
                d="M400.288,356.112h-288.24V150.544h288.24V356.112z M128.048,340.112h256.24V166.544h-256.24V340.112
                z" />
            <polygon style="fill:#FFFFFF;"
                points="256.192,279.888 115.824,192.752 124.272,179.152 256.16,261.04 388.032,178.528 
                396.528,192.096 	" />
        </g>
    </symbol>
</svg>